#!OML:ASF F:\VICON\USERDATA\INSTALL\rory3\rory3.ASF
:FULLY-SPECIFIED
:DEGREES
434
root 2.29643 22.7371 0.869623 -171.039 -14.2098 -180.845
lowerback 6.49299 -1.32039 -3.64534
upperback 1.6359 -2.04806 1.53979
thorax -1.76652 -1.04836 3.79919
lowerneck -16.6454 3.44453 -9.5265
upperneck 40.0261 3.63468 2.16842
head 17.1795 -1.00903 2.94829
rclavicle -2.82274e-014 1.5704e-014
rhumerus -13.6266 5.78256 -79.2182
rradius 72.6392
rwrist -16.4505
rhand -25.424 9.62012
rfingers 7.12502
rthumb 1.10205 -20.3568
lclavicle -2.82274e-014 1.5704e-014
lhumerus 17.1253 -9.37042 82.9236
lradius 62.4975
lwrist 26.112
lhand -13.6359 27.8638
lfingers 7.12502
lthumb 12.4801 57.4711
rfemur -36.393 -3.65271 22.6586
rtibia 49.5054
rfoot -10.9193 -0.848848
rtoes 12.8389
lfemur -29.3634 -3.80001 -21.6594
ltibia 33.8696
lfoot -10.93 -11.764
ltoes 1.12751
435
root 2.32921 22.7645 0.836022 -170.923 -14.5004 -181
lowerback 6.34978 -1.2877 -3.82334
upperback 1.64161 -2.00966 1.4926
thorax -1.67976 -1.02987 3.84284
lowerneck -16.5206 3.41219 -9.3748
upperneck 40.0752 3.4887 2.18734
head 17.1891 -1.04663 2.90248
rclavicle 1.92324e-014 7.15625e-015
rhumerus -13.9424 5.62397 -79.2702
rradius 72.6665
rwrist -16.3641
rhand -25.4258 9.75524
rfingers 7.12502
rthumb 1.10031 -20.2217
lclavicle 1.92324e-014 7.15625e-015
lhumerus 17.0989 -9.71839 82.8329
lradius 62.2674
lwrist 26.14
lhand -13.6059 27.5484
lfingers 7.12502
lthumb 12.5091 57.154
rfemur -36.0361 -3.74455 22.5953
rtibia 48.8932
rfoot -10.8417 -0.992449
rtoes 13.2665
lfemur -29.6245 -3.27143 -21.8005
ltibia 34.3109
lfoot -10.2265 -12.6178
ltoes 0.725232
436
root 2.3603 22.797 0.805302 -170.854 -14.8598 -181.04
lowerback 6.3207 -1.40701 -3.93045
upperback 1.66604 -2.17369 1.63726
thorax -1.61301 -1.11487 4.06342
lowerneck -16.6079 3.51056 -9.52649
upperneck 40.1841 3.72863 2.09835
head 17.2527 -0.998597 2.93347
rclavicle -8.39865e-015 1.15295e-014
rhumerus -14.0349 5.96322 -79.1468
rradius 72.7658
rwrist -16.4745
rhand -25.3096 9.48354
rfingers 7.12502
rthumb 1.21253 -20.4928
lclavicle -8.39865e-015 1.15295e-014
lhumerus 17.0312 -9.4769 82.9322
lradius 62.0733
lwrist 26.0379
lhand -13.6216 27.1258
lfingers 7.12502
lthumb 12.494 56.7323
rfemur -35.6042 -3.91368 22.6539
rtibia 48.1787
rfoot -10.7583 -1.1439
rtoes 14.3918
lfemur -30.0339 -2.64178 -21.8715
ltibia 34.9149
lfoot -9.36413 -13.4726
ltoes 0.161487
437
root 2.39131 22.8407 0.773674 -170.874 -15.2113 -180.902
lowerback 6.31511 -1.40739 -3.80041
upperback 1.75234 -2.16904 1.71725
thorax -1.52312 -1.11903 4.07066
lowerneck -16.6843 3.45694 -9.42936
upperneck 40.2106 3.68104 1.98195
head 17.3007 -1.01652 2.8589
rclavicle 3.35946e-014 4.96962e-015
rhumerus -14.1776 5.83401 -79.0915
rradius 72.9864
rwrist -16.7926
rhand -25.0612 9.11605
rfingers 7.12502
rthumb 1.45242 -20.8588
lclavicle 3.35946e-014 4.96962e-015
lhumerus 17.21 -9.61182 82.9392
lradius 61.7972
lwrist 26.0365
lhand -13.5359 26.9304
lfingers 7.12502
lthumb 12.5765 56.5319
rfemur -35.0666 -4.13614 22.9482
rtibia 47.3709
rfoot -10.8593 -1.21299
rtoes 14.1241
lfemur -30.5681 -1.83041 -21.803
ltibia 35.651
lfoot -8.26692 -14.4249
ltoes 0.664008
438
root 2.42704 22.8764 0.743537 -170.964 -15.6089 -180.784
lowerback 6.38009 -1.46359 -3.7875
upperback 1.82852 -2.24901 1.85426
thorax -1.46773 -1.16494 4.21197
lowerneck -16.6284 3.4487 -9.51741
upperneck 40.1805 3.70586 1.96086
head 17.2669 -1.01817 2.86801
rclavicle 3.99557e-014 -9.54166e-015
rhumerus -14.3147 5.87674 -79.07
rradius 73.1422
rwrist -17.1722
rhand -24.9961 8.91352
rfingers 7.12502
rthumb 1.51536 -21.0608
lclavicle 3.99557e-014 -9.54166e-015
lhumerus 17.355 -9.576 82.9792
lradius 61.4254
lwrist 25.9827
lhand -13.4398 26.6876
lfingers 7.12502
lthumb 12.6693 56.2833
rfemur -34.4307 -4.38105 23.262
rtibia 46.5009
rfoot -11.2805 -1.27473
rtoes 12.1853
lfemur -31.0556 -1.02186 -21.7189
ltibia 36.4941
lfoot -7.18549 -15.4242
ltoes 1.82987
